<svg xmlns="http://www.w3.org/2000/svg" width="792" height="281" viewBox="0 154.5 792 281" enable-background="new 0 154.5 792 281"><path d="M751.934 173.758h-711.898c-11.183 0-20.235 8.978-20.235 20.052v202.364c0 11.113 9.061 20.068 20.235 20.068h711.898c11.182 0 20.266-8.955 20.266-20.068v-202.364c-.001-11.074-9.085-20.052-20.266-20.052zm-343.864 50.855c0-2.692 2.305-4.991 5.029-4.991h34.189c2.732 0 5.039 2.299 5.039 4.991v24.337c0 2.692-2.307 4.991-5.039 4.991h-34.188c-2.725 0-5.029-2.299-5.029-4.991v-24.337zm0 58.218c0-2.7 2.305-4.992 5.029-4.992h34.189c2.732 0 5.039 2.292 5.039 4.992v24.329c0 2.707-2.307 4.991-5.039 4.991h-34.188c-2.725 0-5.029-2.284-5.029-4.991v-24.329zm-68.405-58.218c0-2.692 2.305-4.991 5.037-4.991h34.199c2.716 0 5.021 2.299 5.021 4.991v24.337c0 2.692-2.313 4.991-5.021 4.991h-34.199c-2.732 0-5.037-2.299-5.037-4.991v-24.337zm0 58.218c0-2.7 2.305-4.992 5.037-4.992h34.199c2.716 0 5.021 2.292 5.021 4.992v24.329c0 2.707-2.313 4.991-5.021 4.991h-34.199c-2.732 0-5.037-2.284-5.037-4.991v-24.329zm-68.389-58.218c0-2.692 2.312-4.991 5.037-4.991h34.183c2.717 0 5.021 2.299 5.021 4.991v24.337c0 2.692-2.312 4.991-5.021 4.991h-34.183c-2.725 0-5.037-2.299-5.037-4.991v-24.337zm0 58.218c0-2.7 2.312-4.992 5.037-4.992h34.183c2.717 0 5.021 2.292 5.021 4.992v24.329c0 2.707-2.312 4.991-5.021 4.991h-34.183c-2.725 0-5.037-2.284-5.037-4.991v-24.329zm-160.926 82.554c0 2.692-2.321 4.992-5.037 4.992h-34.199c-2.716 0-5.037-2.3-5.037-4.992v-24.336c0-2.692 2.321-4.992 5.037-4.992h34.199c2.716 0 5.037 2.3 5.037 4.992v24.336zm0-58.225c0 2.707-2.321 4.991-5.037 4.991h-34.199c-2.716 0-5.037-2.284-5.037-4.991v-24.329c0-2.7 2.321-4.992 5.037-4.992h34.199c2.716 0 5.037 2.292 5.037 4.992v24.329zm0-58.217c0 2.691-2.321 4.992-5.037 4.992h-34.199c-2.716 0-5.037-2.3-5.037-4.992v-24.337c0-2.691 2.321-4.992 5.037-4.992h34.199c2.716 0 5.037 2.3 5.037 4.992v24.337zm68.389 116.442c0 2.692-2.321 4.992-5.037 4.992h-34.183c-2.732 0-5.037-2.3-5.037-4.992v-24.336c0-2.692 2.305-4.992 5.037-4.992h34.183c2.716 0 5.037 2.3 5.037 4.992v24.336zm0-58.225c0 2.707-2.321 4.991-5.037 4.991h-34.183c-2.732 0-5.037-2.284-5.037-4.991v-24.329c0-2.7 2.305-4.992 5.037-4.992h34.183c2.716 0 5.037 2.292 5.037 4.992v24.329zm0-58.217c0 2.691-2.321 4.992-5.037 4.992h-34.183c-2.732 0-5.037-2.3-5.037-4.992v-24.337c0-2.691 2.305-4.992 5.037-4.992h34.183c2.716 0 5.037 2.3 5.037 4.992v24.337zm68.389 116.442c0 2.692-2.312 4.992-5.021 4.992h-34.198c-2.732 0-5.037-2.3-5.037-4.992v-24.336c0-2.692 2.305-4.992 5.037-4.992h34.198c2.717 0 5.021 2.3 5.021 4.992v24.336zm0-58.225c0 2.707-2.312 4.991-5.021 4.991h-34.198c-2.732 0-5.037-2.284-5.037-4.991v-24.329c0-2.7 2.305-4.992 5.037-4.992h34.198c2.717 0 5.021 2.292 5.021 4.992v24.329zm0-58.217c0 2.691-2.312 4.992-5.021 4.992h-34.198c-2.732 0-5.037-2.3-5.037-4.992v-24.337c0-2.691 2.305-4.992 5.037-4.992h34.198c2.717 0 5.021 2.3 5.021 4.992v24.337zm273.597 116.442c0 2.692-2.312 4.992-5.045 4.992h-239.367c-2.725 0-5.037-2.3-5.037-4.992v-24.336c0-2.692 2.312-4.992 5.037-4.992h239.367c2.732 0 5.045 2.3 5.045 4.992v24.336zm0-58.225c0 2.707-2.312 4.991-5.045 4.991h-34.176c-2.725 0-5.029-2.284-5.029-4.991v-24.329c0-2.7 2.305-4.992 5.029-4.992h34.176c2.732 0 5.045 2.292 5.045 4.992v24.329zm0-58.217c0 2.691-2.312 4.992-5.045 4.992h-34.176c-2.725 0-5.029-2.3-5.029-4.992v-24.337c0-2.691 2.305-4.992 5.029-4.992h34.176c2.732 0 5.045 2.3 5.045 4.992v24.337zm68.396 116.442c0 2.692-2.312 4.992-5.045 4.992h-34.191c-2.715 0-5.027-2.3-5.027-4.992v-24.336c0-2.692 2.312-4.992 5.027-4.992h34.191c2.732 0 5.045 2.3 5.045 4.992v24.336zm0-58.225c0 2.707-2.312 4.991-5.045 4.991h-34.191c-2.715 0-5.027-2.284-5.027-4.991v-24.329c0-2.7 2.312-4.992 5.027-4.992h34.191c2.732 0 5.045 2.292 5.045 4.992v24.329zm0-58.217c0 2.691-2.312 4.992-5.045 4.992h-34.191c-2.715 0-5.027-2.3-5.027-4.992v-24.337c0-2.691 2.312-4.992 5.027-4.992h34.191c2.732 0 5.045 2.3 5.045 4.992v24.337zm68.389 116.442c0 2.692-2.32 4.992-5.037 4.992h-34.182c-2.717 0-5.037-2.3-5.037-4.992v-24.336c0-2.692 2.32-4.992 5.037-4.992h34.182c2.717 0 5.037 2.3 5.037 4.992v24.336zm0-58.225c0 2.707-2.32 4.991-5.037 4.991h-34.182c-2.717 0-5.037-2.284-5.037-4.991v-24.329c0-2.7 2.32-4.992 5.037-4.992h34.182c2.717 0 5.037 2.292 5.037 4.992v24.329zm0-58.217c0 2.691-2.32 4.992-5.037 4.992h-34.182c-2.717 0-5.037-2.3-5.037-4.992v-24.337c0-2.691 2.32-4.992 5.037-4.992h34.182c2.717 0 5.037 2.3 5.037 4.992v24.337zm68.406 116.442c0 2.692-2.32 4.992-5.037 4.992h-34.191c-2.732 0-5.045-2.3-5.045-4.992v-24.336c0-2.692 2.312-4.992 5.045-4.992h34.191c2.717 0 5.037 2.3 5.037 4.992v24.336zm0-58.225c0 2.707-2.32 4.991-5.037 4.991h-34.191c-2.732 0-5.045-2.284-5.045-4.991v-24.329c0-2.7 2.312-4.992 5.045-4.992h34.191c2.717 0 5.037 2.292 5.037 4.992v24.329zm0-58.217c0 2.691-2.32 4.992-5.037 4.992h-34.191c-2.732 0-5.045-2.3-5.045-4.992v-24.337c0-2.691 2.312-4.992 5.045-4.992h34.191c2.717 0 5.037 2.3 5.037 4.992v24.337z"/></svg>