<svg xmlns="http://www.w3.org/2000/svg" width="792" height="281" viewBox="0 154.5 792 281" enable-background="new 0 154.5 792 281"><path d="M751.934 173.758h-711.898c-11.183 0-20.235 8.978-20.235 20.052v202.364c0 11.113 9.061 20.068 20.235 20.068h711.898c11.182 0 20.266-8.955 20.266-20.068v-202.364c-.001-11.074-9.085-20.052-20.266-20.052zM408.07 224.613c0-2.692 2.305-4.991 5.029-4.991h34.189c2.732 0 5.039 2.299 5.039 4.991v24.337c0 2.692-2.307 4.991-5.039 4.991h-34.188c-2.725 0-5.029-2.299-5.029-4.991v-24.337zM408.07 282.831c0-2.7 2.305-4.992 5.029-4.992h34.189c2.732 0 5.039 2.292 5.039 4.992v24.329c0 2.707-2.307 4.991-5.039 4.991h-34.188c-2.725 0-5.029-2.284-5.029-4.991v-24.329zM339.665 224.613c0-2.692 2.305-4.991 5.037-4.991h34.199c2.716 0 5.021 2.299 5.021 4.991v24.337c0 2.692-2.313 4.991-5.021 4.991h-34.199c-2.732 0-5.037-2.299-5.037-4.991v-24.337zM339.665 282.831c0-2.7 2.305-4.992 5.037-4.992h34.199c2.716 0 5.021 2.292 5.021 4.992v24.329c0 2.707-2.313 4.991-5.021 4.991h-34.199c-2.732 0-5.037-2.284-5.037-4.991v-24.329zM271.276 224.613c0-2.692 2.312-4.991 5.037-4.991h34.183c2.717 0 5.021 2.299 5.021 4.991v24.337c0 2.692-2.312 4.991-5.021 4.991h-34.183c-2.725 0-5.037-2.299-5.037-4.991v-24.337zM271.276 282.831c0-2.7 2.312-4.992 5.037-4.992h34.183c2.717 0 5.021 2.292 5.021 4.992v24.329c0 2.707-2.312 4.991-5.021 4.991h-34.183c-2.725 0-5.037-2.284-5.037-4.991v-24.329zM110.35 365.385c0 2.692-2.321 4.992-5.037 4.992h-34.199c-2.716 0-5.037-2.3-5.037-4.992v-24.336c0-2.692 2.321-4.992 5.037-4.992h34.199c2.716 0 5.037 2.3 5.037 4.992v24.336zM110.35 307.16c0 2.707-2.321 4.991-5.037 4.991h-34.199c-2.716 0-5.037-2.284-5.037-4.991v-24.329c0-2.7 2.321-4.992 5.037-4.992h34.199c2.716 0 5.037 2.292 5.037 4.992v24.329zM110.35 248.943c0 2.691-2.321 4.992-5.037 4.992h-34.199c-2.716 0-5.037-2.3-5.037-4.992v-24.337c0-2.691 2.321-4.992 5.037-4.992h34.199c2.716 0 5.037 2.3 5.037 4.992v24.337zM178.739 365.385c0 2.692-2.321 4.992-5.037 4.992h-34.183c-2.732 0-5.037-2.3-5.037-4.992v-24.336c0-2.692 2.305-4.992 5.037-4.992h34.183c2.716 0 5.037 2.3 5.037 4.992v24.336zM178.739 307.16c0 2.707-2.321 4.991-5.037 4.991h-34.183c-2.732 0-5.037-2.284-5.037-4.991v-24.329c0-2.7 2.305-4.992 5.037-4.992h34.183c2.716 0 5.037 2.292 5.037 4.992v24.329zM178.739 248.943c0 2.691-2.321 4.992-5.037 4.992h-34.183c-2.732 0-5.037-2.3-5.037-4.992v-24.337c0-2.691 2.305-4.992 5.037-4.992h34.183c2.716 0 5.037 2.3 5.037 4.992v24.337zM247.128 365.385c0 2.692-2.312 4.992-5.021 4.992h-34.198c-2.732 0-5.037-2.3-5.037-4.992v-24.336c0-2.692 2.305-4.992 5.037-4.992h34.198c2.717 0 5.021 2.3 5.021 4.992v24.336zM247.128 307.16c0 2.707-2.312 4.991-5.021 4.991h-34.198c-2.732 0-5.037-2.284-5.037-4.991v-24.329c0-2.7 2.305-4.992 5.037-4.992h34.198c2.717 0 5.021 2.292 5.021 4.992v24.329zM247.128 248.943c0 2.691-2.312 4.992-5.021 4.992h-34.198c-2.732 0-5.037-2.3-5.037-4.992v-24.337c0-2.691 2.305-4.992 5.037-4.992h34.198c2.717 0 5.021 2.3 5.021 4.992v24.337zM520.725 365.385c0 2.692-2.312 4.992-5.045 4.992h-239.367c-2.725 0-5.037-2.3-5.037-4.992v-24.336c0-2.692 2.312-4.992 5.037-4.992h239.367c2.732 0 5.045 2.3 5.045 4.992v24.336zM520.725 307.16c0 2.707-2.312 4.991-5.045 4.991h-34.176c-2.725 0-5.029-2.284-5.029-4.991v-24.329c0-2.7 2.305-4.992 5.029-4.992h34.176c2.732 0 5.045 2.292 5.045 4.992v24.329zM520.725 248.943c0 2.691-2.312 4.992-5.045 4.992h-34.176c-2.725 0-5.029-2.3-5.029-4.992v-24.337c0-2.691 2.305-4.992 5.029-4.992h34.176c2.732 0 5.045 2.3 5.045 4.992v24.337zM589.121 365.385c0 2.692-2.312 4.992-5.045 4.992h-34.191c-2.715 0-5.027-2.3-5.027-4.992v-24.336c0-2.692 2.312-4.992 5.027-4.992h34.191c2.732 0 5.045 2.3 5.045 4.992v24.336zM589.121 307.16c0 2.707-2.312 4.991-5.045 4.991h-34.191c-2.715 0-5.027-2.284-5.027-4.991v-24.329c0-2.7 2.312-4.992 5.027-4.992h34.191c2.732 0 5.045 2.292 5.045 4.992v24.329zM589.121 248.943c0 2.691-2.312 4.992-5.045 4.992h-34.191c-2.715 0-5.027-2.3-5.027-4.992v-24.337c0-2.691 2.312-4.992 5.027-4.992h34.191c2.732 0 5.045 2.3 5.045 4.992v24.337zM657.51 365.385c0 2.692-2.32 4.992-5.037 4.992h-34.182c-2.717 0-5.037-2.3-5.037-4.992v-24.336c0-2.692 2.32-4.992 5.037-4.992h34.182c2.717 0 5.037 2.3 5.037 4.992v24.336zM657.51 307.16c0 2.707-2.32 4.991-5.037 4.991h-34.182c-2.717 0-5.037-2.284-5.037-4.991v-24.329c0-2.7 2.32-4.992 5.037-4.992h34.182c2.717 0 5.037 2.292 5.037 4.992v24.329zM657.51 248.943c0 2.691-2.32 4.992-5.037 4.992h-34.182c-2.717 0-5.037-2.3-5.037-4.992v-24.337c0-2.691 2.32-4.992 5.037-4.992h34.182c2.717 0 5.037 2.3 5.037 4.992v24.337zM725.916 365.385c0 2.692-2.32 4.992-5.037 4.992h-34.191c-2.732 0-5.045-2.3-5.045-4.992v-24.336c0-2.692 2.312-4.992 5.045-4.992h34.191c2.717 0 5.037 2.3 5.037 4.992v24.336zM725.916 307.16c0 2.707-2.32 4.991-5.037 4.991h-34.191c-2.732 0-5.045-2.284-5.045-4.991v-24.329c0-2.7 2.312-4.992 5.045-4.992h34.191c2.717 0 5.037 2.292 5.037 4.992v24.329zM725.916 248.943c0 2.691-2.32 4.992-5.037 4.992h-34.191c-2.732 0-5.045-2.3-5.045-4.992v-24.337c0-2.691 2.312-4.992 5.045-4.992h34.191c2.717 0 5.037 2.3 5.037 4.992v24.337z"/></svg>