<?xml version="1.0" encoding="utf-8"?>
<!DOCTYPE svg PUBLIC "-//W3C//DTD SVG 1.1//EN" "http://www.w3.org/Graphics/SVG/1.1/DTD/svg11.dtd">
<svg version="1.1" id="Calque_1" xmlns="http://www.w3.org/2000/svg" xmlns:xlink="http://www.w3.org/1999/xlink" x="0px" y="0px"
	 width="792px" height="281px" viewBox="0 154.5 792 281" enable-background="new 0 154.5 792 281" xml:space="preserve">
<path d="M751.934,173.758H40.036c-11.183,0-20.235,8.978-20.235,20.052v202.364c0,11.113,9.061,20.068,20.235,20.068h711.898
	c11.182,0,20.266-8.955,20.266-20.068V193.81C772.199,182.736,763.115,173.758,751.934,173.758z M408.07,224.613
	c0-2.692,2.305-4.991,5.029-4.991h34.189c2.732,0,5.039,2.299,5.039,4.991v24.337c0,2.692-2.307,4.991-5.039,4.991H413.1
	c-2.725,0-5.029-2.299-5.029-4.991V224.613z M408.07,282.831c0-2.7,2.305-4.992,5.029-4.992h34.189c2.732,0,5.039,2.292,5.039,4.992
	v24.329c0,2.707-2.307,4.991-5.039,4.991H413.1c-2.725,0-5.029-2.284-5.029-4.991V282.831z M339.665,224.613
	c0-2.692,2.305-4.991,5.037-4.991h34.199c2.716,0,5.021,2.299,5.021,4.991v24.337c0,2.692-2.313,4.991-5.021,4.991h-34.199
	c-2.732,0-5.037-2.299-5.037-4.991V224.613z M339.665,282.831c0-2.7,2.305-4.992,5.037-4.992h34.199
	c2.716,0,5.021,2.292,5.021,4.992v24.329c0,2.707-2.313,4.991-5.021,4.991h-34.199c-2.732,0-5.037-2.284-5.037-4.991V282.831z
	 M271.276,224.613c0-2.692,2.312-4.991,5.037-4.991h34.183c2.717,0,5.021,2.299,5.021,4.991v24.337c0,2.692-2.312,4.991-5.021,4.991
	h-34.183c-2.725,0-5.037-2.299-5.037-4.991V224.613L271.276,224.613z M271.276,282.831c0-2.7,2.312-4.992,5.037-4.992h34.183
	c2.717,0,5.021,2.292,5.021,4.992v24.329c0,2.707-2.312,4.991-5.021,4.991h-34.183c-2.725,0-5.037-2.284-5.037-4.991V282.831
	L271.276,282.831z M110.35,365.385c0,2.692-2.321,4.992-5.037,4.992H71.114c-2.716,0-5.037-2.3-5.037-4.992v-24.336
	c0-2.692,2.321-4.992,5.037-4.992h34.199c2.716,0,5.037,2.3,5.037,4.992V365.385z M110.35,307.16c0,2.707-2.321,4.991-5.037,4.991
	H71.114c-2.716,0-5.037-2.284-5.037-4.991v-24.329c0-2.7,2.321-4.992,5.037-4.992h34.199c2.716,0,5.037,2.292,5.037,4.992V307.16z
	 M110.35,248.943c0,2.691-2.321,4.992-5.037,4.992H71.114c-2.716,0-5.037-2.3-5.037-4.992v-24.337c0-2.691,2.321-4.992,5.037-4.992
	h34.199c2.716,0,5.037,2.3,5.037,4.992V248.943z M178.739,365.385c0,2.692-2.321,4.992-5.037,4.992h-34.183
	c-2.732,0-5.037-2.3-5.037-4.992v-24.336c0-2.692,2.305-4.992,5.037-4.992h34.183c2.716,0,5.037,2.3,5.037,4.992V365.385z
	 M178.739,307.16c0,2.707-2.321,4.991-5.037,4.991h-34.183c-2.732,0-5.037-2.284-5.037-4.991v-24.329c0-2.7,2.305-4.992,5.037-4.992
	h34.183c2.716,0,5.037,2.292,5.037,4.992V307.16z M178.739,248.943c0,2.691-2.321,4.992-5.037,4.992h-34.183
	c-2.732,0-5.037-2.3-5.037-4.992v-24.337c0-2.691,2.305-4.992,5.037-4.992h34.183c2.716,0,5.037,2.3,5.037,4.992V248.943z
	 M247.128,365.385c0,2.692-2.312,4.992-5.021,4.992h-34.198c-2.732,0-5.037-2.3-5.037-4.992v-24.336
	c0-2.692,2.305-4.992,5.037-4.992h34.198c2.717,0,5.021,2.3,5.021,4.992V365.385z M247.128,307.16c0,2.707-2.312,4.991-5.021,4.991
	h-34.198c-2.732,0-5.037-2.284-5.037-4.991v-24.329c0-2.7,2.305-4.992,5.037-4.992h34.198c2.717,0,5.021,2.292,5.021,4.992V307.16z
	 M247.128,248.943c0,2.691-2.312,4.992-5.021,4.992h-34.198c-2.732,0-5.037-2.3-5.037-4.992v-24.337
	c0-2.691,2.305-4.992,5.037-4.992h34.198c2.717,0,5.021,2.3,5.021,4.992V248.943z M520.725,365.385c0,2.692-2.312,4.992-5.045,4.992
	H276.313c-2.725,0-5.037-2.3-5.037-4.992v-24.336c0-2.692,2.312-4.992,5.037-4.992H515.68c2.732,0,5.045,2.3,5.045,4.992V365.385z
	 M520.725,307.16c0,2.707-2.312,4.991-5.045,4.991h-34.176c-2.725,0-5.029-2.284-5.029-4.991v-24.329c0-2.7,2.305-4.992,5.029-4.992
	h34.176c2.732,0,5.045,2.292,5.045,4.992V307.16z M520.725,248.943c0,2.691-2.312,4.992-5.045,4.992h-34.176
	c-2.725,0-5.029-2.3-5.029-4.992v-24.337c0-2.691,2.305-4.992,5.029-4.992h34.176c2.732,0,5.045,2.3,5.045,4.992V248.943z
	 M589.121,365.385c0,2.692-2.312,4.992-5.045,4.992h-34.191c-2.715,0-5.027-2.3-5.027-4.992v-24.336
	c0-2.692,2.312-4.992,5.027-4.992h34.191c2.732,0,5.045,2.3,5.045,4.992V365.385z M589.121,307.16c0,2.707-2.312,4.991-5.045,4.991
	h-34.191c-2.715,0-5.027-2.284-5.027-4.991v-24.329c0-2.7,2.312-4.992,5.027-4.992h34.191c2.732,0,5.045,2.292,5.045,4.992V307.16z
	 M589.121,248.943c0,2.691-2.312,4.992-5.045,4.992h-34.191c-2.715,0-5.027-2.3-5.027-4.992v-24.337
	c0-2.691,2.312-4.992,5.027-4.992h34.191c2.732,0,5.045,2.3,5.045,4.992V248.943z M657.51,365.385c0,2.692-2.32,4.992-5.037,4.992
	h-34.182c-2.717,0-5.037-2.3-5.037-4.992v-24.336c0-2.692,2.32-4.992,5.037-4.992h34.182c2.717,0,5.037,2.3,5.037,4.992V365.385z
	 M657.51,307.16c0,2.707-2.32,4.991-5.037,4.991h-34.182c-2.717,0-5.037-2.284-5.037-4.991v-24.329c0-2.7,2.32-4.992,5.037-4.992
	h34.182c2.717,0,5.037,2.292,5.037,4.992V307.16z M657.51,248.943c0,2.691-2.32,4.992-5.037,4.992h-34.182
	c-2.717,0-5.037-2.3-5.037-4.992v-24.337c0-2.691,2.32-4.992,5.037-4.992h34.182c2.717,0,5.037,2.3,5.037,4.992V248.943z
	 M725.916,365.385c0,2.692-2.32,4.992-5.037,4.992h-34.191c-2.732,0-5.045-2.3-5.045-4.992v-24.336c0-2.692,2.312-4.992,5.045-4.992
	h34.191c2.717,0,5.037,2.3,5.037,4.992V365.385z M725.916,307.16c0,2.707-2.32,4.991-5.037,4.991h-34.191
	c-2.732,0-5.045-2.284-5.045-4.991v-24.329c0-2.7,2.312-4.992,5.045-4.992h34.191c2.717,0,5.037,2.292,5.037,4.992V307.16z
	 M725.916,248.943c0,2.691-2.32,4.992-5.037,4.992h-34.191c-2.732,0-5.045-2.3-5.045-4.992v-24.337c0-2.691,2.312-4.992,5.045-4.992
	h34.191c2.717,0,5.037,2.3,5.037,4.992V248.943z"/>
</svg>
