<svg xmlns="http://www.w3.org/2000/svg" viewBox="0 0 100 100"><path d="M49.449 90.719c6.33 0 15.844-2.797 15.844-19.293 0-3.65-.089-9.242-.646-14.662-.016-.145-9.808-.998-15.389-.998h.376c-5.581 0-15.373.854-15.388.998-.558 5.42-.646 11.012-.646 14.662 0 16.496 9.512 19.293 15.843 19.293"/><path d="M47.996 53.051c-5.379-.031-9.557.271-13.635.814.532-3.786 1.332-7.208 2.545-9.402 2.21-3.988 7.188-4.099 11.097-4.008l-.007 12.596z"/><path d="M50.866 52.991c5.379-.027 9.558.272 13.634.815-.531-3.787-1.33-7.208-2.544-9.402-2.21-3.988-7.188-4.099-11.097-4.008l.007 12.595z"/><path d="M33.366 71.426c0 16.496 9.514 19.293 15.844 19.293" fill="none"/><path d="M50.859 40.417l-2.856.038.001-.993c-.005-1.584-.01-3.221.246-4.866.441-2.85 1.749-5.441 3.887-7.7.727-.77 1.508-1.398 2.264-2.005.469-.374.906-.728 1.328-1.107.959-.863 1.703-1.597 1.852-2.533.281-1.809-.469-3.369-2.232-4.635-.593-.423-1.289-.775-2.027-1.146-1.844-.93-3.933-1.984-4.885-4.501-.856-2.248-.328-4.983 1.34-6.969l2.141 1.798c-1.011 1.205-1.361 2.884-.872 4.178.569 1.5 1.94 2.193 3.531 2.996.802.404 1.63.822 2.396 1.372 2.618 1.877 3.814 4.485 3.367 7.339-.311 1.992-1.716 3.256-2.74 4.18-.479.433-.974.828-1.447 1.209-.713.574-1.389 1.116-1.984 1.746-1.736 1.84-2.799 3.929-3.15 6.209-.226 1.427-.16 2.894-.154 4.436v.954h-.006z"/></svg>